<?xml version="1.0" encoding="utf-8"?>
<!-- Generator: Adobe Illustrator 26.3.1, SVG Export Plug-In . SVG Version: 6.00 Build 0)  -->
<svg version="1.1" id="Layer_1" xmlns="http://www.w3.org/2000/svg" xmlns:xlink="http://www.w3.org/1999/xlink" x="0px" y="0px"
	 viewBox="0 0 612 328.3" style="enable-background:new 0 0 612 328.3;" xml:space="preserve">
<style type="text/css">
	.st0{fill:#FFFFFF;}
	.st1{fill:none;stroke:#000000;stroke-miterlimit:10;}
</style>
<g>
	<path class="st0" d="M0,0v265.7h41.4c29.9,0,59.5-5.4,87.5-15.8l88.1-32.9c57.3-21.4,120.5-21.1,177.6,1l80.1,31
		c28.7,11.1,59.3,16.8,90.1,16.8H612V0H0z"/>
	<path class="st0" d="M612,328.3"/>
	<path class="st0" d="M0,328.3"/>
</g>
<path class="st1" d="M612,265.7h-47.2c-30.8,0-61.4-5.7-90.1-16.8l-80.1-31c-57.1-22.1-120.3-22.4-177.6-1l-88.1,32.9
	c-28,10.5-57.6,15.8-87.5,15.8H0"/>
</svg>
